<?xml version="1.0" encoding="UTF-8" standalone="no"?>
<svg
   width="256"
   height="256"
   version="1.1"
   id="svg261"
   sodipodi:docname="hexiliary.svg"
   inkscape:version="1.2.2 (b0a8486541, 2022-12-01)"
   xmlns:inkscape="http://www.inkscape.org/namespaces/inkscape"
   xmlns:sodipodi="http://sodipodi.sourceforge.net/DTD/sodipodi-0.dtd"
   xmlns="http://www.w3.org/2000/svg"
   xmlns:svg="http://www.w3.org/2000/svg">
  <defs
     id="defs265" />
  <sodipodi:namedview
     id="namedview263"
     pagecolor="#ffffff"
     bordercolor="#000000"
     borderopacity="0.47058824"
     inkscape:showpageshadow="2"
     inkscape:pageopacity="0"
     inkscape:pagecheckerboard="0"
     inkscape:deskcolor="#d1d1d1"
     showgrid="false"
     showguides="true"
     inkscape:zoom="1.6445312"
     inkscape:cx="111.88599"
     inkscape:cy="174.82185"
     inkscape:window-width="1854"
     inkscape:window-height="1011"
     inkscape:window-x="66"
     inkscape:window-y="32"
     inkscape:window-maximized="1"
     inkscape:current-layer="svg261">
    <sodipodi:guide
       position="128,128"
       orientation="-1,0"
       id="guide539"
       inkscape:locked="false"
       inkscape:label=""
       inkscape:color="rgb(0,134,229)" />
    <sodipodi:guide
       position="128,128"
       orientation="0,1"
       id="guide541"
       inkscape:locked="false"
       inkscape:label=""
       inkscape:color="rgb(0,134,229)" />
  </sodipodi:namedview>
  <clipPath
     id="cl_3">
    <rect
       width="819"
       height="1024"
       id="rect2"
       x="0"
       y="0" />
  </clipPath>
  <g
     clip-path="url(#cl_3)"
     id="g259"
     transform="matrix(0.26036326,0,0,0.26036326,24.633622,-7.8661564)">
    <g
       id="g537"
       transform="translate(-11.30783,10.279659)">
      <path
         fill="#3f9b83"
         transform="matrix(0.999756,0,0,1,-102.375,0)"
         d="m 927.25,274.354 c 0.671,6.021 0.286,12.385 0.266,18.443 l -0.042,31.642 0.013,105.344 -0.004,212.677 c -0.009,32.138 0.542,64.347 0.077,96.476 -0.045,3.078 -0.134,5.539 -1.777,8.251 -15.104,-8.869 -29.945,-18.477 -44.767,-27.821 0.919,-1.796 0.853,-75.239 0.877,-84.679 l 0.031,-223.294 -0.058,-72.694 c -0.016,-11.729 0.902,-24.147 -0.215,-35.797 5.616,-4.733 13.145,-8.674 19.418,-12.618 8.417,-5.293 17.223,-11.723 26.181,-15.93 z"
         id="path7" />
      <path
         fill="#226c61"
         transform="matrix(0.999756,0,0,1,-102.375,0)"
         d="m 881.016,719.366 c 14.822,9.344 29.663,18.952 44.767,27.821 -6.337,5.837 -16.912,10.919 -24.487,15.595 q -39.195,24.351 -79.31,47.155 L 610.692,933.683 c -8.799,5.162 -96.398,56.938 -98.434,57.031 -0.5,-17.516 -0.42,-35.294 -0.013,-52.813 3.289,-2.568 7.584,-4.611 11.187,-6.761 10.851,-6.476 21.903,-12.606 32.803,-18.999 l 107.607,-63.154 147.474,-88.427 45.383,-26.654 c 8.012,-4.722 15.865,-10.668 24.317,-14.54 z"
         id="path9" />
      <path
         fill="#3f9b83"
         transform="matrix(0.999756,0,0,1,-102.375,0)"
         d="m 143.704,722.293 c 9.981,4.4 19.422,10.842 28.882,16.311 q 24.944,14.1 49.567,28.752 L 334.5,832.75 c 44.312,26.104 89.045,51.482 133.057,78.083 l 31.875,18.975 c 4.149,2.494 8.663,4.754 12.61,7.54 l 0.203,0.553 c -0.407,17.519 -0.487,35.297 0.013,52.813 L 318.497,877.947 254.097,840.584 150.302,781.026 118.848,763.19 c -7.014,-3.955 -14.357,-7.718 -20.9423,-12.36 3.7683,-3.297 9.2583,-5.753 13.5853,-8.426 z"
         id="path11" />
      <path
         fill="#5bb39c"
         transform="matrix(0.999756,0,0,1,-102.375,0)"
         d="m 96.4009,275.668 c 8.0961,0.627 48.7061,30.822 55.3871,29.285 0.537,13.999 0.158,28.113 0.171,42.128 l 0.16,77.028 0.292,290.353 c 21.397,11.31 42.127,24.164 63.097,36.262 q 67.355,38.584 134.2,78.042 54.318,31.279 108.288,63.155 L 493.06,912.4 c 6.387,3.738 12.991,7.311 19.172,11.379 -0.446,4.475 -0.218,9.073 -0.19,13.569 -3.947,-2.786 -8.461,-5.046 -12.61,-7.54 L 467.557,910.833 C 423.545,884.232 378.812,858.854 334.5,832.75 L 222.153,767.356 Q 197.53,752.704 172.586,738.604 c -9.46,-5.469 -18.901,-11.911 -28.882,-16.311 l -32.213,20.111 c -4.327,2.673 -9.817,5.129 -13.5853,8.426 -1.4292,-1.816 -1.3628,-4.274 -1.4317,-6.479 -0.6387,-20.421 -0.0811,-41.015 -0.0373,-61.45 l 0.0962,-110.605 z"
         id="path13" />
      <path
         fill="#5bb39c"
         transform="matrix(0.999756,0,0,1,-102.375,0)"
         d="m 512.268,32.3928 c 15.735,8.6695 31.107,18.005 46.672,26.975 l 99.309,57.4012 208.067,121.202 c 9.179,5.456 57.137,32.135 60.934,36.383 -8.958,4.207 -17.764,10.637 -26.181,15.93 -6.273,3.944 -13.802,7.885 -19.418,12.618 -3.476,1.124 -5.911,1.021 -9.466,0.309 -18.164,-11.484 -37.352,-21.787 -56.007,-32.506 L 738.227,225.488 511.664,94.0109 c -20.265,11.1521 -39.995,23.4251 -59.996,35.0581 l -173.179,101.534 -92.495,53.571 -21.758,13.001 c -4.1,2.442 -8.782,4.719 -12.448,7.778 -6.681,1.537 -47.291,-28.658 -55.3871,-29.285 1.0185,-1.851 2.7586,-2.982 4.4971,-4.094 10.856,-6.941 22.402,-13.053 33.505,-19.616 l 93.962,-54.838 z"
         id="path15" />
      <path
         fill="#0c2a3c"
         transform="matrix(0.999756,0,0,1,-102.375,0)"
         d="m 511.664,94.0109 226.563,131.4771 77.951,45.217 c 18.655,10.719 37.843,21.022 56.007,32.506 3.555,0.712 5.99,0.815 9.466,-0.309 1.117,11.65 0.199,24.068 0.215,35.797 l 0.058,72.694 -0.031,223.294 c -0.024,9.44 0.042,82.883 -0.877,84.679 -8.452,3.872 -16.305,9.818 -24.317,14.54 l -45.383,26.654 -147.474,88.427 -107.607,63.154 c -10.9,6.393 -21.952,12.523 -32.803,18.999 -3.603,2.15 -7.898,4.193 -11.187,6.761 l -0.203,-0.553 c -0.028,-4.496 -0.256,-9.094 0.19,-13.569 -6.181,-4.068 -12.785,-7.641 -19.172,-11.379 l -35.064,-20.479 q -53.97,-31.876 -108.288,-63.155 -66.846,-39.458 -134.2,-78.042 c -20.97,-12.098 -41.7,-24.952 -63.097,-36.262 l -0.292,-290.353 -0.16,-77.028 c -0.013,-14.015 0.366,-28.129 -0.171,-42.128 3.666,-3.059 8.348,-5.336 12.448,-7.778 l 21.758,-13.001 92.495,-53.571 173.179,-101.534 c 20.001,-11.633 39.731,-23.906 59.996,-35.0581 z"
         id="path17" />
      <path
         fill="url(#gradient_0)"
         transform="matrix(0.999756,0,0,1,-102.375,0)"
         d="m 872.185,303.211 c 3.555,0.712 5.99,0.815 9.466,-0.309 1.117,11.65 0.199,24.068 0.215,35.797 l 0.058,72.694 -0.031,223.294 c -0.024,9.44 0.042,82.883 -0.877,84.679 -8.452,3.872 -16.305,9.818 -24.317,14.54 l -45.383,26.654 -147.474,88.427 -107.607,63.154 c -10.9,6.393 -21.952,12.523 -32.803,18.999 -3.603,2.15 -7.898,4.193 -11.187,6.761 l -0.203,-0.553 c -0.028,-4.496 -0.256,-9.094 0.19,-13.569 7.368,-3.315 14.439,-8.925 21.537,-12.952 24.814,-14.08 49.153,-28.934 73.886,-43.136 q 80.498,-46.395 160.095,-94.319 c 34.742,-20.518 70.135,-40.181 104.404,-61.468 z"
         id="path26"
         style="fill:url(#gradient_0)" />
      <path
         fill="#ce512d"
         transform="matrix(0.999756,0,0,1,-102.375,0)"
         d="m 720.333,403.524 c 7.355,-3.125 16.184,-9.862 23.231,-14.083 28.249,-16.921 55.762,-34.988 83.767,-52.29 -0.719,19.639 -0.389,39.427 -0.438,59.083 -0.053,21.106 -0.444,42.389 0.158,63.483 l -52.754,31.527 c -10.666,6.332 -21.576,12.483 -31.877,19.395 -1.201,-0.719 -2.396,-1.491 -3.635,-2.14 -6.327,1.49 -12.555,3.347 -18.799,5.148 -0.493,-36.697 0.359,-73.424 0.347,-110.123 z"
         id="path28" />
      <path
         fill="#0b5c62"
         transform="matrix(0.999756,0,0,1,-102.375,0)"
         d="m 799.057,381.453 c 0.089,0.051 0.195,0.081 0.267,0.154 0.021,0.022 0.613,0.825 0.629,0.875 0.614,1.89 0.047,57.711 0.058,64.769 -20.636,13.332 -41.866,25.552 -62.729,38.505 -0.5,0.029 -0.186,0.069 -0.82,-0.481 -0.536,-7.073 -0.024,-14.538 -0.022,-21.666 q -0.055,-22.191 0.14,-44.381 c 6.02,-4.021 12.497,-7.571 18.714,-11.294 14.62,-8.756 29.384,-17.337 43.763,-26.481 z"
         id="path30" />
      <path
         fill="#226c61"
         transform="matrix(0.999756,0,0,1,-102.375,0)"
         d="m 795.216,389.509 c 0.273,0.046 0.462,0.307 0.68,0.478 0.304,9.022 0.116,18.112 0.119,27.141 0.003,9.316 0.218,18.712 -0.567,28.002 -6.026,4.421 -12.925,7.958 -19.375,11.739 q -17.287,10.04 -34.377,20.41 c -1.219,-3.759 -0.716,-47.981 -0.475,-54.645 4.346,-3.282 9.434,-5.935 14.05,-8.845 q 19.82,-12.391 39.945,-24.28 z"
         id="path32" />
      <path
         fill="#ce512d"
         transform="matrix(0.999756,0,0,1,-102.375,0)"
         d="m 513.033,745.887 c 7.891,-3.236 15.512,-8.381 23.016,-12.469 q 27.923,-15.028 55.409,-30.84 c 4.615,-2.645 19.875,-12.17 24.287,-13.235 1.409,-0.341 1.994,0.562 2.972,1.378 0.075,38.862 -0.876,77.872 0.202,116.709 -30.23,18.227 -61.031,35.723 -91.61,53.373 -3.296,1.903 -12.842,8.46 -15.487,9.052 1.471,-6.881 0.242,-27.363 0.23,-35.392 l 0.17,-87.802 z"
         id="path34" />
      <path
         fill="#0b5c62"
         transform="matrix(0.999756,0,0,1,-102.375,0)"
         d="m 591.832,723.398 0.44,0.421 c 1.449,3.558 0.673,61.116 0.696,69.041 q -20.531,11.685 -40.941,23.581 c -7.104,4.135 -14.334,8.04 -21.203,12.565 l -0.435,-0.141 c -1.093,-2.623 -0.331,-63.821 -0.322,-72.127 20.411,-11.309 41.903,-21.108 61.765,-33.34 z"
         id="path36" />
      <path
         fill="#226c61"
         transform="matrix(0.999756,0,0,1,-102.375,0)"
         d="m 586.159,731.451 c 0.453,0.064 0.15,-0.016 0.774,0.535 0.391,8.185 0.107,16.486 0.095,24.685 -0.014,10.125 0.159,20.29 -0.231,30.407 -6.07,4.952 -13.712,8.588 -20.516,12.454 l -32.382,18.486 -0.3,-0.086 c -1.358,-1.737 -0.201,-50.815 -0.108,-58.247 17.014,-10.21 35.011,-19.181 52.668,-28.234 z"
         id="path38" />
      <path
         fill="#f1894d"
         transform="matrix(0.999756,0,0,1,-102.375,0)"
         d="m 195.167,335.589 c 12.95,8.721 26.785,16.413 40.183,24.457 q 35.325,21.498 71.21,42.05 l -0.01,70.178 c 0.014,11.845 0.399,23.842 -0.203,35.666 -4.531,-3.461 -12.062,-4.061 -17.572,-3.301 -4.179,0.577 -7.57,2.088 -11.174,4.241 -10.331,-4.083 -20.337,-11.267 -29.899,-16.98 -17.518,-10.469 -35.196,-20.711 -52.18,-32.036 l -0.004,-83.021 c 0.004,-13.619 0.768,-27.707 -0.351,-41.254 z"
         id="path40" />
      <path
         fill="#226c61"
         transform="matrix(0.999756,0,0,1,-102.375,0)"
         d="m 234.936,387.676 c 8.756,4.877 17.215,10.35 25.828,15.479 6.688,3.983 13.816,7.673 20.259,12.01 -3.447,0.23 -4.814,-2.018 -7.827,-2.293 l -0.161,0.81 c -4.263,-1.489 -26.887,-15.591 -31.638,-18.852 l 0.246,-0.743 c -0.699,-1.399 -2.051,-2.119 -3.315,-2.961 -1.655,-1.103 -2.486,-1.634 -3.392,-3.45 z"
         id="path42" />
      <path
         fill="#0b5c62"
         transform="matrix(0.999756,0,0,1,-102.375,0)"
         d="m 224.508,380.715 c 3.496,2.274 7.079,4.476 10.428,6.961 0.906,1.816 1.737,2.347 3.392,3.45 1.264,0.842 2.616,1.562 3.315,2.961 l -0.246,0.743 c -4.242,-2.298 -8.328,-4.833 -12.432,-7.365 l -0.467,58.548 32.494,19.432 c 5.837,3.517 11.587,7.329 17.537,10.641 l 0.156,-58.82 c -1.885,-1.166 -3.865,-2.273 -5.65,-3.584 l 0.161,-0.81 c 3.013,0.275 4.38,2.523 7.827,2.293 l 0.911,0.764 c 1.396,6.084 0.455,14.408 0.464,20.707 l 0.047,44.982 c -10.126,-5.204 -19.893,-11.607 -29.641,-17.501 -9.421,-5.697 -19.211,-11.127 -28.246,-17.411 z"
         id="path44" />
      <path
         fill="#5bb39c"
         transform="matrix(0.999756,0,0,1,-102.375,0)"
         d="m 228.965,387.465 c 4.104,2.532 8.19,5.067 12.432,7.365 4.751,3.261 27.375,17.363 31.638,18.852 1.785,1.311 3.765,2.418 5.65,3.584 l -0.156,58.82 c -5.95,-3.312 -11.7,-7.124 -17.537,-10.641 l -32.494,-19.432 z"
         id="path46" />
      <path
         fill="#ce512d"
         transform="matrix(0.999756,0,0,1,-102.375,0)"
         d="m 826.029,561.072 c 1.361,5.823 0.372,30.348 0.354,37.885 l 0.063,89.57 c -20.578,11.938 -41.491,23.324 -61.946,35.468 -14.558,8.643 -28.921,18.375 -43.906,26.224 -1.483,0.777 -2.145,1.314 -3.773,0.961 l -0.34,-0.315 c 1.133,-7.637 0.035,-17.879 0.021,-25.809 l 0.28,-69.456 c 0.065,-9.662 -1.027,-20.289 0.363,-29.83 12.461,-5.999 24.42,-14.284 36.338,-21.323 24.233,-14.314 48.706,-28.416 72.546,-43.375 z"
         id="path48" />
      <path
         fill="#0b5c62"
         transform="matrix(0.999756,0,0,1,-102.375,0)"
         d="m 738.265,640.852 c 12.73,-8.16 26.1,-15.573 39.075,-23.368 6.828,-4.102 15.181,-10.171 22.217,-13.251 l 0.01,6.344 q -17.604,10.22 -35.008,20.779 c -7.048,4.226 -14.643,8.241 -21.265,13.096 l 0.307,57.146 c 13.64,-7.187 27.213,-15.382 40.442,-23.311 3.397,-2.037 10.803,-7.557 13.994,-8.707 0.469,-0.169 0.665,-0.122 1.107,-0.095 l 0.944,1.144 c -0.008,0.772 0.023,1.629 -0.121,2.387 -0.157,0.829 -0.498,1.129 -1.148,1.621 -5.921,4.479 -13.158,8.193 -19.557,11.997 q -20.656,12.055 -41.04,24.563 0.323,-35.172 0.043,-70.345 z"
         id="path50" />
      <path
         fill="#226c61"
         transform="matrix(0.999756,0,0,1,-102.375,0)"
         d="m 799.557,604.233 c 0.877,5.149 0.443,10.971 0.434,16.2 l -0.075,32.837 c -0.013,5.637 -0.486,11.783 0.172,17.359 l -0.944,-1.144 c -0.442,-0.027 -0.638,-0.074 -1.107,0.095 -3.191,1.15 -10.597,6.67 -13.994,8.707 -13.229,7.929 -26.802,16.124 -40.442,23.311 l -0.307,-57.146 c 6.622,-4.855 14.217,-8.87 21.265,-13.096 q 17.404,-10.559 35.008,-20.779 z"
         id="path52" />
      <path
         fill="#fcc65c"
         transform="matrix(0.999756,0,0,1,-102.375,0)"
         d="m 304.824,269.632 c 14.813,7.9 29.211,17.359 43.513,26.169 18.033,11.107 36.308,21.955 54.53,32.756 l 0.781,0.608 c 2.571,1.967 7.471,3.676 8.278,7.08 0.134,0.567 0.1,1.3 0.108,1.869 l -72.992,43.972 c -10.205,6.195 -22.243,14.526 -32.482,20.01 q -35.885,-20.551 -71.21,-42.05 c -13.398,-8.044 -27.233,-15.736 -40.183,-24.457 3.314,-3.883 23.535,-14.444 29.115,-17.78 z"
         id="path54" />
      <path
         fill="#226c61"
         transform="matrix(0.999756,0,0,1,-102.375,0)"
         d="m 250.846,349.01 c 0.447,-0.913 0.596,-1.669 0.826,-2.658 l 34.517,21.102 c 5.578,3.402 11.643,6.596 16.899,10.448 l 0.97,0.951 -1.743,1.977 c -4.754,-3.569 -10.548,-6.507 -15.641,-9.62 -11.972,-7.318 -24.101,-14.501 -35.828,-22.2 z"
         id="path56" />
      <path
         fill="#0b5c62"
         transform="matrix(0.999756,0,0,1,-102.375,0)"
         d="m 304.15,307.438 c 20.415,12.819 41.314,25.048 61.995,37.444 -9.988,6.677 -20.729,12.354 -31.017,18.57 -9.969,6.023 -20.097,13.117 -30.617,18.078 -0.739,-0.218 -1.478,-0.415 -2.196,-0.7 l 1.743,-1.977 c 7.282,-3.655 14.319,-8.284 21.337,-12.442 10.987,-6.509 22.207,-12.926 32.931,-19.853 -7.233,-4.93 -15.176,-9.466 -22.827,-13.713 -10.377,-5.835 -21.018,-11.901 -30.885,-18.551 -3.713,2.99 -8.204,5.256 -12.312,7.672 q -10.477,6.114 -20.866,12.375 -9.927,5.932 -19.764,12.011 c -0.23,0.989 -0.379,1.745 -0.826,2.658 l -7.369,-4.641 q 19.065,-11.592 38.311,-22.881 c 7.461,-4.432 15.512,-8.726 22.362,-14.05 z"
         id="path58" />
      <path
         fill="#5bb39c"
         transform="matrix(0.999756,0,0,1,-102.375,0)"
         d="m 251.672,346.352 q 9.837,-6.079 19.764,-12.011 c 9.98,6.616 20.978,11.962 31.421,17.827 0.395,8.552 0.219,17.173 0.231,25.734 -5.256,-3.852 -11.321,-7.046 -16.899,-10.448 z"
         id="path60" />
      <path
         fill="#3f9b83"
         transform="matrix(0.999756,0,0,1,-102.375,0)"
         d="m 335.499,332.845 c 7.651,4.247 15.594,8.783 22.827,13.713 -10.724,6.927 -21.944,13.344 -32.931,19.853 -7.018,4.158 -14.055,8.787 -21.337,12.442 l -0.97,-0.951 c -0.012,-8.561 0.164,-17.182 -0.231,-25.734 10.862,-5.966 22.441,-12.293 32.642,-19.323 z"
         id="path62" />
      <path
         fill="#86cdc8"
         transform="matrix(0.999756,0,0,1,-102.375,0)"
         d="m 271.436,334.341 q 10.389,-6.261 20.866,-12.375 c 4.108,-2.416 8.599,-4.682 12.312,-7.672 9.867,6.65 20.508,12.716 30.885,18.551 -10.201,7.03 -21.78,13.357 -32.642,19.323 -10.443,-5.865 -21.441,-11.211 -31.421,-17.827 z"
         id="path64" />
      <path
         fill="#fcc65c"
         transform="matrix(0.999756,0,0,1,-102.375,0)"
         d="m 402.601,214.458 c 0.592,-0.958 1.222,-1.42 2.151,-2.022 15.2,-9.861 31.299,-18.693 46.881,-27.962 20.16,-11.992 40.076,-24.431 60.317,-36.276 23.239,13.546 46.176,27.637 69.233,41.492 11.342,6.815 25.682,14.372 36.219,21.727 0.931,0.65 1.426,1.091 1.849,2.183 -7.751,8.18 -36.029,23.813 -47.465,30.933 l -36.52,22.779 c -7.554,4.682 -15.171,9.703 -23.069,13.759 -19.166,-10.262 -37.628,-22.28 -56.167,-33.631 -17.818,-10.909 -36.079,-21.347 -53.429,-32.982 z"
         id="path66" />
      <path
         fill="#0b5c62"
         transform="matrix(0.999756,0,0,1,-102.375,0)"
         d="m 512.602,184.142 c 6.321,4.882 13.998,8.756 20.861,12.848 q 20.069,11.849 39.828,24.209 -30.861,18.3 -61.243,37.386 l -0.713,0.116 c -18.695,-14.124 -40.566,-24.12 -59.824,-37.439 20.516,-12.1 40.408,-25.318 61.091,-37.12 z"
         id="path68" />
      <path
         fill="#5bb39c"
         transform="matrix(0.999756,0,0,1,-102.375,0)"
         d="m 478.507,211.32 c 9.88,5.666 24.075,12.648 33.026,18.838 -0.012,7.849 0.486,16.061 -0.165,23.862 -7.099,-2.82 -14.128,-8.044 -20.685,-12.066 q -15.71,-9.436 -31.272,-19.115 9.705,-5.499 19.096,-11.519 z"
         id="path70" />
      <path
         fill="#3f9b83"
         transform="matrix(0.999756,0,0,1,-102.375,0)"
         d="m 546.489,211.353 c 5.747,4.217 12.491,7.35 18.617,11.012 -9.15,6.246 -19.004,11.723 -28.527,17.407 -8.08,4.823 -16.581,10.545 -25.211,14.248 0.651,-7.801 0.153,-16.013 0.165,-23.862 11.873,-5.797 23.038,-13.043 34.956,-18.805 z"
         id="path72" />
      <path
         fill="#86cdc8"
         transform="matrix(0.999756,0,0,1,-102.375,0)"
         d="m 512.42,191.181 q 17.137,9.913 34.069,20.172 c -11.918,5.762 -23.083,13.008 -34.956,18.805 -8.951,-6.19 -23.146,-13.172 -33.026,-18.838 q 16.868,-10.217 33.913,-20.139 z"
         id="path74" />
      <path
         fill="#fcc65c"
         transform="matrix(0.999756,0,0,1,-102.375,0)"
         d="m 717.118,269.304 72.978,43.915 c 11.645,7.019 24.634,13.886 35.641,21.665 0.746,0.528 1.412,0.923 1.614,1.878 0.027,0.127 -0.013,0.26 -0.02,0.389 -28.005,17.302 -55.518,35.369 -83.767,52.29 -7.047,4.221 -15.876,10.958 -23.231,14.083 -10.254,-6.344 -20.006,-13.443 -30.132,-19.976 -14.556,-9.392 -29.638,-17.974 -44.418,-27.004 -12.303,-7.516 -24.32,-15.594 -36.874,-22.678 3.276,-1.89 6.615,-3.721 9.735,-5.863 z"
         id="path76" />
      <path
         fill="#0b5c62"
         transform="matrix(0.999756,0,0,1,-102.375,0)"
         d="m 719.411,307.947 c 3.199,0.704 53.119,30.906 58.972,34.73 -18.971,12.511 -38.914,24.525 -58.645,35.795 -0.025,0.011 -0.048,0.034 -0.076,0.035 -0.305,0.011 -0.61,10e-4 -0.915,10e-4 l 0.523,0.253 c -0.73,0.119 -1.246,-0.147 -1.917,-0.487 -6.451,-3.264 -12.668,-8.47 -18.814,-12.37 -12.213,-7.751 -24.93,-14.905 -36.707,-23.309 q 28.676,-17.515 57.579,-34.648 z"
         id="path78" />
      <path
         fill="#3f9b83"
         transform="matrix(0.999756,0,0,1,-102.375,0)"
         d="m 754.26,334.132 c 5.114,2.963 10.53,6.038 15.247,9.594 -16.357,11.277 -34.407,20.091 -50.783,31.446 -6.234,-3.994 -14.11,-8.109 -19.368,-13.301 18.439,-8.64 37.29,-17.53 54.904,-27.739 z"
         id="path80" />
      <path
         fill="#5bb39c"
         transform="matrix(0.999756,0,0,1,-102.375,0)"
         d="m 720.396,313.441 c 10.945,7.38 22.688,13.653 33.864,20.691 -17.614,10.209 -36.465,19.099 -54.904,27.739 -9.479,-6.663 -19.693,-12.424 -29.688,-18.281 17.181,-9.516 33.883,-20.045 50.728,-30.149 z"
         id="path82" />
      <path
         fill="#f1894d"
         transform="matrix(0.999756,0,0,1,-102.375,0)"
         d="m 406.15,590.418 c 20.456,12.815 41.409,24.838 62.128,37.223 q 11.709,7.073 23.568,13.889 c 3.119,1.78 6.675,4.196 10.033,5.396 3.99,1.991 7.958,4.047 12.058,5.802 0.377,14.654 0.113,29.379 0.05,44.04 -0.026,6.251 -0.524,12.889 -0.032,19.104 -0.879,9.839 -0.937,20.132 -0.922,30.015 l -0.811,0.774 -0.17,87.802 c 0.012,8.029 1.241,28.511 -0.23,35.392 -12.187,-6.674 -24.03,-13.941 -36.007,-20.98 -23.489,-13.803 -47.077,-27.719 -70.963,-40.82 -0.645,-22.345 -0.014,-44.85 0.038,-67.21 0.038,-16.118 -0.787,-32.736 0.321,-48.803 0.94,-3.033 0.301,-7.669 0.56,-10.987 0.268,-5.709 0.044,-11.424 0.384,-17.14 l -0.068,-13.507 c -0.222,-5.407 -0.019,-10.908 -0.012,-16.324 l -0.022,-12.792 c -0.099,-5.063 0.063,-10.149 0.118,-15.214 z"
         id="path84" />
      <path
         fill="#ce512d"
         transform="matrix(0.999756,0,0,1,-102.375,0)"
         d="m 430.342,794.709 c 9.277,3.085 18.481,9.671 26.987,14.619 11.519,6.7 23.678,12.994 34.391,20.923 0.297,-1.018 0.53,-1.849 0.669,-2.906 0.09,1.64 0.231,3.157 -0.17,4.771 -3.68,-1.202 -7.317,-4.185 -10.723,-6.143 q -19.154,-10.761 -37.911,-22.199 c -4.352,-2.709 -9.588,-5.464 -13.243,-9.065 z"
         id="path86" />
      <path
         fill="#226c61"
         transform="matrix(0.999756,0,0,1,-102.375,0)"
         d="m 430.342,794.709 c -0.71,-0.403 -1.932,-0.8 -2.142,-1.61 -0.662,-2.554 -0.635,-64.121 -0.039,-68.703 0.526,-0.683 0.377,-0.854 1.1,-0.892 2.414,-0.127 55.895,31.859 62.788,35.489 l 0.053,43.324 c 0.021,8.3 -0.236,16.745 0.287,25.028 -0.139,1.057 -0.372,1.888 -0.669,2.906 -10.713,-7.929 -22.872,-14.223 -34.391,-20.923 -8.506,-4.948 -17.71,-11.534 -26.987,-14.619 z"
         id="path88" />
      <path
         fill="#5bb39c"
         transform="matrix(0.999756,0,0,1,-102.375,0)"
         d="m 433.043,731.25 c 17.807,10.402 35.527,20.886 53.504,31.004 l 0.198,56.984 c -2.225,0.308 -45.341,-26.537 -53.399,-29.855 0.183,-19.375 -0.345,-38.755 -0.303,-58.133 z"
         id="path90" />
      <path
         fill="#5bb39c"
         transform="matrix(0.999756,0,0,1,-102.375,0)"
         d="m 406.15,590.418 c 20.456,12.815 41.409,24.838 62.128,37.223 q 11.709,7.073 23.568,13.889 c 3.119,1.78 6.675,4.196 10.033,5.396 3.99,1.991 7.958,4.047 12.058,5.802 0.377,14.654 0.113,29.379 0.05,44.04 -0.026,6.251 -0.524,12.889 -0.032,19.104 -0.879,9.839 -0.937,20.132 -0.922,30.015 l -0.811,0.774 c -5.944,-2.158 -16.068,-9.87 -22.1,-13.446 -27.022,-16.02 -53.08,-32.568 -80.501,-48.144 -2.01,-1.141 -3.217,-1.734 -3.85,-4.016 0.268,-5.709 0.044,-11.424 0.384,-17.14 l -0.068,-13.507 c -0.222,-5.407 -0.019,-10.908 -0.012,-16.324 l -0.022,-12.792 c -0.099,-5.063 0.063,-10.149 0.118,-15.214 z"
         id="path92" />
      <path
         fill="#0b5c62"
         transform="matrix(0.999756,0,0,1,-102.375,0)"
         d="m 406.053,621.292 q 26.496,16.411 53.453,32.053 c 14.098,8.11 28.491,15.896 42.125,24.764 0.008,4.587 -0.077,9.192 0.053,13.776 -11.304,-7.859 -23.241,-14.749 -35.067,-21.778 l -40.958,-24.178 c -5.366,-3.097 -14.525,-9.875 -19.584,-11.845 z"
         id="path94" />
      <path
         fill="#0b5c62"
         transform="matrix(0.999756,0,0,1,-102.375,0)"
         d="m 406.15,590.418 c 20.456,12.815 41.409,24.838 62.128,37.223 q 11.709,7.073 23.568,13.889 c 3.119,1.78 6.675,4.196 10.033,5.396 L 501.931,663 c -14.668,-9.714 -30.156,-18.1 -45.184,-27.228 q -16.839,-10.454 -33.981,-20.404 c -5.458,-3.172 -10.888,-6.58 -16.595,-9.29 z"
         id="path96" />
      <path
         fill="#fcc65c"
         transform="matrix(0.999756,0,0,1,-102.375,0)"
         d="m 501.879,646.926 c 3.99,1.991 7.958,4.047 12.058,5.802 0.377,14.654 0.113,29.379 0.05,44.04 -0.026,6.251 -0.524,12.889 -0.032,19.104 -0.879,9.839 -0.937,20.132 -0.922,30.015 l -0.811,0.774 c -5.944,-2.158 -16.068,-9.87 -22.1,-13.446 -27.022,-16.02 -53.08,-32.568 -80.501,-48.144 -2.01,-1.141 -3.217,-1.734 -3.85,-4.016 0.268,-5.709 0.044,-11.424 0.384,-17.14 l -0.068,-13.507 c 22.852,13.812 45.963,27.111 68.966,40.662 6.267,3.692 21.987,11.961 26.219,15.942 0.352,1.598 0.496,3.112 0.591,4.744 L 501.931,663 Z"
         id="path98" />
      <path
         fill="#0b5c62"
         transform="matrix(0.999756,0,0,1,-102.375,0)"
         d="m 406.087,650.408 c 22.852,13.812 45.963,27.111 68.966,40.662 6.267,3.692 21.987,11.961 26.219,15.942 0.352,1.598 0.496,3.112 0.591,4.744 l 0.058,8.961 c -5.01,-2.471 -9.85,-5.633 -14.686,-8.45 q -14.821,-8.596 -29.521,-17.397 c -17.225,-10.257 -34.839,-19.869 -51.559,-30.955 z"
         id="path100" />
      <path
         fill="#f1894d"
         transform="matrix(0.999756,0,0,1,-102.375,0)"
         d="m 277.601,508.88 c 3.604,-2.153 6.995,-3.664 11.174,-4.241 5.51,-0.76 13.041,-0.16 17.572,3.301 1.6,3.663 14.955,11.232 18.999,13.866 3.698,2.308 7.387,4.607 11.188,6.745 q 6.922,4.29 14.015,8.291 5.26,3.29 10.642,6.378 7.191,4.228 14.437,8.362 c 4.329,2.913 9.186,5.208 13.375,8.259 3.875,2.49 7.875,4.789 11.839,7.134 l 2.483,1.374 c 0.443,2.103 1.755,3.463 2.651,5.338 -0.022,4.783 -0.891,12.228 0.174,16.731 l 0.021,15.66 c -0.055,5.065 -0.217,10.151 -0.118,15.214 l 0.022,12.792 c -0.007,5.416 -0.21,10.917 0.012,16.324 l 0.068,13.507 c -0.34,5.716 -0.116,11.431 -0.384,17.14 -0.259,3.318 0.38,7.954 -0.56,10.987 -9.09,6.101 -18.756,11.429 -28.145,17.057 l -42.368,25.616 c -8.865,5.308 -20.974,14.307 -30.245,17.789 -12.198,-5.809 -23.705,-13.863 -35.384,-20.691 -24.484,-14.317 -49.047,-28.62 -73.767,-42.522 -0.486,-7.722 -0.192,-15.635 -0.182,-23.373 l 0.158,-41.961 c 0.108,-20.409 -0.832,-41.258 0.378,-61.611 7.584,-6.896 18.001,-12.295 26.693,-17.792 18.494,-11.696 37.33,-23.115 55.252,-35.674 z"
         id="path102" />
      <path
         fill="#0b5c62"
         transform="matrix(0.999756,0,0,1,-102.375,0)"
         d="m 224.725,604.917 c 5.715,2.216 11.584,6.919 16.911,10.094 l 41.123,24.438 c 0.779,22.009 0.133,44.261 0.254,66.296 q -29.386,-16.868 -58.376,-34.409 c 0.343,-15.057 -0.023,-30.176 -0.099,-45.238 -0.035,-7.025 -0.339,-14.178 0.187,-21.181 z"
         id="path104" />
      <path
         fill="#5bb39c"
         transform="matrix(0.999756,0,0,1,-102.375,0)"
         d="m 228.392,611.228 c 16.842,10.289 34.425,19.45 51.063,30.065 -0.215,19.391 -0.078,38.806 -0.056,58.199 -5.735,-2.228 -11.807,-6.879 -17.14,-10.065 l -33.856,-19.88 c 0.457,-19.393 0.12,-38.917 -0.011,-58.319 z"
         id="path106" />
      <path
         fill="url(#gradient_1)"
         transform="matrix(0.999756,0,0,1,-102.375,0)"
         d="m 277.601,508.88 c 3.604,-2.153 6.995,-3.664 11.174,-4.241 5.51,-0.76 13.041,-0.16 17.572,3.301 1.6,3.663 14.955,11.232 18.999,13.866 3.698,2.308 7.387,4.607 11.188,6.745 q 6.922,4.29 14.015,8.291 5.26,3.29 10.642,6.378 7.191,4.228 14.437,8.362 c 4.329,2.913 9.186,5.208 13.375,8.259 3.875,2.49 7.875,4.789 11.839,7.134 -19.752,12.694 -39.891,24.653 -59.925,36.89 -12.313,7.521 -25.219,14.704 -36.44,23.815 C 296.8,620.1 282.042,612.415 272.5,606.912 l -34.399,-19.83 c -14.077,-8.15 -28.026,-17.262 -42.445,-24.736 7.584,-6.896 18.001,-12.295 26.693,-17.792 18.494,-11.696 37.33,-23.115 55.252,-35.674 z"
         id="path115"
         style="fill:url(#gradient_1)" />
      <path
         fill="#226c61"
         transform="matrix(0.999756,0,0,1,-102.375,0)"
         d="m 251.298,572.461 c 0.761,-0.845 1.003,-1.407 1.298,-2.501 q 9.411,5.476 18.734,11.1 c 3.39,2.055 6.856,4.541 10.383,6.291 5.13,3.487 16.886,11.373 22.36,13.369 0.989,0.36 1.928,0.186 2.933,0.02 l 1.059,0.468 -3.927,2.214 c -17.981,-9.463 -35.122,-20.947 -52.84,-30.961 z"
         id="path117" />
      <path
         fill="#0b5c62"
         transform="matrix(0.999756,0,0,1,-102.375,0)"
         d="m 304.723,529.911 c 5.696,4.236 12.1,7.706 18.203,11.327 14.179,8.412 28.875,16.328 42.72,25.261 -5.791,5.504 -15.118,9.474 -22.086,13.469 -11.883,6.813 -24.026,13.761 -35.495,21.24 l -1.059,-0.468 c 4.946,-3.443 10.551,-6.36 15.739,-9.458 l 36.089,-21.477 c -7.151,-4.686 -15.177,-10.093 -23.015,-13.533 -10.382,-6.083 -21.473,-11.936 -31.292,-18.865 -17.316,10.606 -35.403,20.789 -51.931,32.553 -0.295,1.094 -0.537,1.656 -1.298,2.501 -2.705,-1.474 -5.456,-2.9 -8.093,-4.49 6.649,-5.175 14.557,-9.299 21.776,-13.674 q 19.947,-12.068 39.742,-24.386 z"
         id="path119" />
      <path
         fill="#5bb39c"
         transform="matrix(0.999756,0,0,1,-102.375,0)"
         d="m 281.713,587.351 c 6.134,-4.161 12.758,-7.839 19.075,-11.746 11.026,-6.821 21.564,-13.817 33.481,-18.991 0.728,0.084 0.891,-0.071 1.55,-0.342 7.838,3.44 15.864,8.847 23.015,13.533 l -36.089,21.477 c -5.188,3.098 -10.793,6.015 -15.739,9.458 -1.005,0.166 -1.944,0.34 -2.933,-0.02 -5.474,-1.996 -17.23,-9.882 -22.36,-13.369 z"
         id="path121" />
      <path
         fill="#86cdc8"
         transform="matrix(0.999756,0,0,1,-102.375,0)"
         d="m 304.527,537.407 c 9.819,6.929 20.91,12.782 31.292,18.865 -0.659,0.271 -0.822,0.426 -1.55,0.342 -11.917,5.174 -22.455,12.17 -33.481,18.991 -6.317,3.907 -12.941,7.585 -19.075,11.746 -3.527,-1.75 -6.993,-4.236 -10.383,-6.291 q -9.323,-5.624 -18.734,-11.1 c 16.528,-11.764 34.615,-21.947 51.931,-32.553 z"
         id="path123" />
      <path
         fill="#ce512d"
         transform="matrix(0.999756,0,0,1,-102.375,0)"
         d="m 400.842,566.975 2.483,1.374 c 0.443,2.103 1.755,3.463 2.651,5.338 -0.022,4.783 -0.891,12.228 0.174,16.731 l 0.021,15.66 c -0.055,5.065 -0.217,10.151 -0.118,15.214 l 0.022,12.792 c -0.007,5.416 -0.21,10.917 0.012,16.324 l 0.068,13.507 c -0.34,5.716 -0.116,11.431 -0.384,17.14 -0.259,3.318 0.38,7.954 -0.56,10.987 -9.09,6.101 -18.756,11.429 -28.145,17.057 l -42.368,25.616 c -8.865,5.308 -20.974,14.307 -30.245,17.789 0.21,-41.601 -0.574,-83.234 0.024,-124.824 11.221,-9.111 24.127,-16.294 36.44,-23.815 20.034,-12.237 40.173,-24.196 59.925,-36.89 z"
         id="path125" />
      <path
         fill="#0b5c62"
         transform="matrix(0.999756,0,0,1,-102.375,0)"
         d="m 387.861,602.487 c 1.401,1.988 0.577,60.906 0.57,68.279 -8.015,4.181 -15.682,9.611 -23.434,14.3 -11.887,7.191 -23.981,13.965 -35.539,21.695 l -0.592,-0.514 c -0.194,-6.6 0.127,-13.288 0.119,-19.901 l -0.101,-47.928 c 7.419,-4.994 15.326,-9.369 23.001,-13.96 q 18.075,-10.843 35.976,-21.971 z"
         id="path127" />
      <path
         fill="#226c61"
         transform="matrix(0.999756,0,0,1,-102.375,0)"
         d="m 383.579,610.026 0.564,0.545 c 0.791,6.022 0.323,12.561 0.31,18.641 l -0.35,39.495 c -3.537,2.666 -7.543,4.892 -11.302,7.236 -13.031,8.126 -26.697,15.293 -39.552,23.658 -0.178,-0.208 -0.404,-0.383 -0.534,-0.624 -0.517,-0.956 -0.522,-51.876 -0.553,-57.821 5.406,-4.209 12.096,-7.532 17.999,-11.022 q 16.816,-9.877 33.418,-20.108 z"
         id="path129" />
      <path
         fill="url(#gradient_2)"
         transform="matrix(0.999756,0,0,1,-102.375,0)"
         d="m 402.601,214.458 c 17.35,11.635 35.611,22.073 53.429,32.982 18.539,11.351 37.001,23.369 56.167,33.631 l -0.112,80.446 c 0.003,8.998 -0.857,29.363 0.681,37.186 1.511,0.613 2.667,0.173 4.13,-0.473 q 2.259,-0.98 4.356,-2.271 c 16.827,11.308 34.665,21.417 52.014,31.921 6.414,3.883 13.248,7.585 19.365,11.891 6.577,3.654 13.163,7.375 19.494,11.444 1.178,0.895 2.228,1.767 3.245,2.843 0.307,3.314 0.459,6.735 0.987,10.016 l -0.157,0.287 q -47.425,29.08 -95.429,57.193 c -1.425,0.743 -2.69,1.093 -3.543,2.477 -0.279,8.357 0.061,16.718 0.069,25.078 l 0.029,51.998 c 0.017,10.435 0.531,21.134 -0.341,31.525 -3.12,4.23 -2.36,14.268 -2.513,19.549 l -0.535,0.547 c -4.1,-1.755 -8.068,-3.811 -12.058,-5.802 -3.358,-1.2 -6.914,-3.616 -10.033,-5.396 q -11.859,-6.816 -23.568,-13.889 c -20.719,-12.385 -41.672,-24.408 -62.128,-37.223 -1.065,-4.503 -0.196,-11.948 -0.174,-16.731 -0.896,-1.875 -2.208,-3.235 -2.651,-5.338 l -2.483,-1.374 c -3.964,-2.345 -7.964,-4.644 -11.839,-7.134 -4.189,-3.051 -9.046,-5.346 -13.375,-8.259 q -7.246,-4.134 -14.437,-8.362 -5.382,-3.088 -10.642,-6.378 -7.093,-4.001 -14.015,-8.291 c -3.801,-2.138 -7.49,-4.437 -11.188,-6.745 -4.044,-2.634 -17.399,-10.203 -18.999,-13.866 0.602,-11.824 0.217,-23.821 0.203,-35.666 l 0.01,-70.178 c 10.239,-5.484 22.277,-13.815 32.482,-20.01 l 72.992,-43.972 c -0.008,-0.569 0.026,-1.302 -0.108,-1.869 -0.807,-3.404 -5.707,-5.113 -8.278,-7.08 l -0.781,-0.608 c 0.499,-5.455 0.111,-11.256 0.107,-16.741 l -0.021,-31.653 -0.028,-40.522 c -0.009,-8.357 0.28,-16.851 -0.324,-25.183 z"
         id="path138"
         style="fill:url(#gradient_2)" />
      <path
         fill="#3f9b83"
         transform="matrix(0.999756,0,0,1,-102.375,0)"
         d="m 483.26,386.872 5.037,2.577 c -17.018,9.691 -33.851,19.927 -50.602,30.084 -13.442,8.15 -26.798,16.478 -40.962,23.349 l -3.771,-2.093 c 7.354,-5.054 15.292,-9.447 22.914,-14.102 q 21.526,-13.291 43.357,-26.074 c 7.896,-4.592 16.515,-8.592 24.027,-13.741 z"
         id="path140" />
      <path
         fill="#0b5c62"
         transform="matrix(0.999756,0,0,1,-102.375,0)"
         d="m 473.665,381.334 c 3.171,1.903 6.332,3.797 9.595,5.538 -7.512,5.149 -16.131,9.149 -24.027,13.741 q -21.831,12.783 -43.357,26.074 c -7.622,4.655 -15.56,9.048 -22.914,14.102 l -8.448,-5.056 c 29.521,-18.279 60.375,-34.996 89.151,-54.399 z"
         id="path142" />
      <path
         fill="#0b5c62"
         transform="matrix(0.999756,0,0,1,-102.375,0)"
         d="m 375.487,445.661 c 4.531,2.771 9.107,5.486 13.469,8.52 l 0.047,105.66 c -4.189,-3.051 -9.046,-5.346 -13.375,-8.259 -0.475,-35.287 -0.094,-70.629 -0.141,-105.921 z"
         id="path144" />
      <path
         fill="#3f9b83"
         transform="matrix(0.999756,0,0,1,-102.375,0)"
         d="m 361.15,437.048 c 4.703,2.62 10.073,5.326 14.337,8.613 0.047,35.292 -0.334,70.634 0.141,105.921 q -7.246,-4.134 -14.437,-8.362 c 1.199,-10.269 0.206,-25.518 0.165,-36.207 z"
         id="path146" />
      <path
         fill="#ce512d"
         transform="matrix(0.999756,0,0,1,-102.375,0)"
         d="m 592.631,439.771 c 6.577,3.654 13.163,7.375 19.494,11.444 -22.327,12.516 -44.11,26.09 -66.082,39.221 -11.021,6.587 -22.24,13.893 -33.85,19.361 -0.698,-6.842 -0.212,-14.094 -0.252,-20.99 19.375,-12.965 40.137,-24.358 60.195,-36.257 6.932,-3.884 13.943,-8.288 20.495,-12.779 z"
         id="path148" />
      <path
         fill="#e17346"
         transform="matrix(0.999756,0,0,1,-102.375,0)"
         d="m 431.884,438.171 c 1.226,3.152 15.713,10.97 19.648,13.439 19.862,12.807 40.527,24.374 60.409,37.197 0.04,6.896 -0.446,14.148 0.252,20.99 -4.417,-0.464 -88.66,-51.624 -101.685,-59.186 7.196,-4.015 14.236,-8.325 21.376,-12.44 z"
         id="path150" />
      <path
         fill="#3f9b83"
         transform="matrix(0.999756,0,0,1,-102.375,0)"
         d="m 449.678,367.506 q 5.299,2.944 10.54,5.989 l 13.447,7.839 c -28.776,19.403 -59.63,36.12 -89.151,54.399 -4.852,-2.447 -9.628,-5.947 -14.269,-8.828 -2.995,-1.654 -5.906,-3.439 -8.826,-5.221 18.463,-10.887 36.629,-22.347 55.003,-33.396 9.432,-5.672 25.569,-13.795 33.256,-20.782 z"
         id="path152" />
      <path
         fill="#0b5c62"
         transform="matrix(0.999756,0,0,1,-102.375,0)"
         d="m 449.678,367.506 q 5.299,2.944 10.54,5.989 c -8.633,5.345 -17.751,9.967 -26.494,15.155 l -63.479,38.255 c -2.995,-1.654 -5.906,-3.439 -8.826,-5.221 18.463,-10.887 36.629,-22.347 55.003,-33.396 9.432,-5.672 25.569,-13.795 33.256,-20.782 z"
         id="path154" />
      <path
         fill="#3f9b83"
         transform="matrix(0.999756,0,0,1,-102.375,0)"
         d="m 336.473,422.006 c 4.869,2.774 9.909,5.414 14.512,8.615 3.448,2.067 6.843,4.164 10.165,6.427 l 0.206,69.965 c 0.041,10.689 1.034,25.938 -0.165,36.207 q -5.382,-3.088 -10.642,-6.378 -7.093,-4.001 -14.015,-8.291 z"
         id="path156" />
      <path
         fill="#0b5c62"
         transform="matrix(0.999756,0,0,1,-102.375,0)"
         d="m 350.549,536.842 0.039,-68.312 c -0.014,-5.761 -0.914,-34.28 0.397,-37.909 3.448,2.067 6.843,4.164 10.165,6.427 l 0.206,69.965 c 0.041,10.689 1.034,25.938 -0.165,36.207 q -5.382,-3.088 -10.642,-6.378 z"
         id="path158" />
      <path
         fill="#fcc65c"
         transform="matrix(0.999756,0,0,1,-102.375,0)"
         d="m 451.532,451.61 c 20.256,-11.411 39.906,-23.782 60.044,-35.341 l 37.739,22.436 c 7.571,4.471 15.771,8.631 22.821,13.845 -20.058,11.899 -40.82,23.292 -60.195,36.257 -19.882,-12.823 -40.547,-24.39 -60.409,-37.197 z"
         id="path160" />
      <path
         fill="#fefe8e"
         transform="matrix(0.999756,0,0,1,-102.375,0)"
         d="m 511.516,435.871 c 5.328,1.294 16.576,9.551 21.49,12.872 q -10.504,6.225 -20.723,12.909 c -7.184,-4.477 -14.765,-8.071 -21.769,-12.907 6.88,-4.513 13.924,-8.683 21.002,-12.874 z"
         id="path162" />
      <path
         fill="#ce512d"
         transform="matrix(0.999756,0,0,1,-102.375,0)"
         d="m 412.034,338.114 0.21,5.786 c 4.386,2.707 9.877,5.464 13.524,9.067 3.7,2.269 7.369,4.711 11.163,6.812 l 12.747,7.727 c -7.687,6.987 -23.824,15.11 -33.256,20.782 -18.374,11.049 -36.54,22.509 -55.003,33.396 -4.77,-2.961 -9.522,-5.898 -14.466,-8.565 -3.911,-2.047 -7.711,-4.417 -11.539,-6.62 -2.98,1.746 -8.988,4.496 -10.84,7.401 l 0.219,0.744 c 3.844,2.449 7.679,5.197 11.68,7.362 l 0.061,106.545 c -3.801,-2.138 -7.49,-4.437 -11.188,-6.745 -4.044,-2.634 -17.399,-10.203 -18.999,-13.866 0.602,-11.824 0.217,-23.821 0.203,-35.666 l 0.01,-70.178 c 10.239,-5.484 22.277,-13.815 32.482,-20.01 z"
         id="path164" />
      <path
         fill="#0b5c62"
         transform="matrix(0.999756,0,0,1,-102.375,0)"
         d="m 324.793,414.644 c 3.844,2.449 7.679,5.197 11.68,7.362 l 0.061,106.545 c -3.801,-2.138 -7.49,-4.437 -11.188,-6.745 0.688,-16.509 0.109,-33.292 0.066,-49.826 -0.05,-19.043 0.351,-38.323 -0.619,-57.336 z"
         id="path166" />
      <path
         fill="#0b5c62"
         transform="matrix(0.999756,0,0,1,-102.375,0)"
         d="m 425.768,352.967 c 3.7,2.269 7.369,4.711 11.163,6.812 -21.593,11.714 -42.387,25.132 -63.405,37.844 q -9.109,5.42 -18.332,10.645 c -2.679,1.535 -5.795,2.989 -8.241,4.851 -3.911,-2.047 -7.711,-4.417 -11.539,-6.62 13.078,-6.87 25.375,-15.007 37.958,-22.71 q 25.98,-15.781 52.396,-30.822 z"
         id="path168" />
      <path
         fill="#3f9b83"
         transform="matrix(0.999756,0,0,1,-102.375,0)"
         d="m 436.931,359.779 12.747,7.727 c -7.687,6.987 -23.824,15.11 -33.256,20.782 -18.374,11.049 -36.54,22.509 -55.003,33.396 -4.77,-2.961 -9.522,-5.898 -14.466,-8.565 2.446,-1.862 5.562,-3.316 8.241,-4.851 q 9.223,-5.225 18.332,-10.645 c 21.018,-12.712 41.812,-26.13 63.405,-37.844 z"
         id="path170" />
      <path
         fill="#f1894d"
         transform="matrix(0.999756,0,0,1,-102.375,0)"
         d="m 403.453,462.199 c 33.356,20.117 67.21,39.546 100.186,60.267 -0.127,36.516 -0.574,73.107 -0.175,109.618 l -66.582,-39.912 c -10.177,-6.08 -20.317,-13.201 -30.906,-18.485 -0.896,-1.875 -2.208,-3.235 -2.651,-5.338 0.886,-11.998 0.183,-24.461 0.166,-36.517 z"
         id="path172" />
      <path
         fill="#fcc65c"
         transform="matrix(0.999756,0,0,1,-102.375,0)"
         d="m 432.951,512.677 c 13.61,8.394 27.758,15.981 41.609,23.974 l -0.033,46.52 c -14.021,-8.115 -27.662,-16.97 -41.905,-24.682 q -0.06,-22.908 0.329,-45.812 z"
         id="path174" />
      <path
         fill="#f1894d"
         transform="matrix(0.999756,0,0,1,-102.375,0)"
         d="m 402.601,214.458 c 17.35,11.635 35.611,22.073 53.429,32.982 18.539,11.351 37.001,23.369 56.167,33.631 l -0.112,80.446 c 0.003,8.998 -0.857,29.363 0.681,37.186 1.511,0.613 2.667,0.173 4.13,-0.473 q 2.259,-0.98 4.356,-2.271 c 16.827,11.308 34.665,21.417 52.014,31.921 6.414,3.883 13.248,7.585 19.365,11.891 -6.552,4.491 -13.563,8.895 -20.495,12.779 -7.05,-5.214 -15.25,-9.374 -22.821,-13.845 l -37.739,-22.436 c -20.138,11.559 -39.788,23.93 -60.044,35.341 -3.935,-2.469 -18.422,-10.287 -19.648,-13.439 4.271,-3.676 14.395,-8.82 19.586,-11.914 16.404,-9.778 33.104,-19.236 49.126,-29.627 -4.023,-2.441 -8.043,-5.171 -12.299,-7.181 l -5.037,-2.577 c -3.263,-1.741 -6.424,-3.635 -9.595,-5.538 l -13.447,-7.839 q -5.241,-3.045 -10.54,-5.989 l -12.747,-7.727 c -3.794,-2.101 -7.463,-4.543 -11.163,-6.812 -3.647,-3.603 -9.138,-6.36 -13.524,-9.067 l -0.21,-5.786 c -0.008,-0.569 0.026,-1.302 -0.108,-1.869 -0.807,-3.404 -5.707,-5.113 -8.278,-7.08 l -0.781,-0.608 c 0.499,-5.455 0.111,-11.256 0.107,-16.741 l -0.021,-31.653 -0.028,-40.522 c -0.009,-8.357 0.28,-16.851 -0.324,-25.183 z"
         id="path176" />
      <path
         fill="#0b5c62"
         transform="matrix(0.999756,0,0,1,-102.375,0)"
         d="m 430.999,256.088 c 6.319,2.568 14.93,8.886 21.066,12.631 13.558,8.277 27.549,16.153 40.719,25.023 0.565,26.262 0.153,52.628 0.178,78.9 -7.048,-0.454 -51.747,-29.201 -62.002,-35.45 q 0.283,-40.552 0.039,-81.104 z"
         id="path178" />
      <path
         fill="#5bb39c"
         transform="matrix(0.999756,0,0,1,-102.375,0)"
         d="m 434.479,263.457 c 17.946,11.844 36.831,22.245 55.028,33.681 l -0.004,68.701 c -7.323,-3.372 -14.554,-8.171 -21.511,-12.278 q -16.58,-9.95 -33.526,-19.261 z"
         id="path180" />
      <path
         fill="#f1894d"
         transform="matrix(0.999756,0,0,1,-102.375,0)"
         d="m 619.251,213.6 c -0.568,6.781 -0.366,13.711 -0.415,20.517 l -0.213,34.062 -0.135,38.25 c -0.013,7.155 -0.288,14.434 0.156,21.574 -3.12,2.142 -6.459,3.973 -9.735,5.863 12.554,7.084 24.571,15.162 36.874,22.678 14.78,9.03 29.862,17.612 44.418,27.004 10.126,6.533 19.878,13.632 30.132,19.976 0.012,36.699 -0.84,73.426 -0.347,110.123 6.244,-1.801 12.472,-3.658 18.799,-5.148 1.239,0.649 2.434,1.421 3.635,2.14 q 25.623,15.063 50.977,30.573 c 10.838,6.543 22.16,12.765 32.632,19.86 -23.84,14.959 -48.313,29.061 -72.546,43.375 -11.918,7.039 -23.877,15.324 -36.338,21.323 -1.39,9.541 -0.298,20.168 -0.363,29.83 l -0.28,69.456 c 0.014,7.93 1.112,18.172 -0.021,25.809 -10.265,-6.05 -20.17,-12.816 -30.311,-19.09 l -67.453,-41.054 c -0.978,-0.816 -1.563,-1.719 -2.972,-1.378 -4.412,1.065 -19.672,10.59 -24.287,13.235 q -27.486,15.812 -55.409,30.84 c -7.504,4.088 -15.125,9.233 -23.016,12.469 -0.015,-9.883 0.043,-20.176 0.922,-30.015 -0.492,-6.215 0.006,-12.853 0.032,-19.104 0.063,-14.661 0.327,-29.386 -0.05,-44.04 l 0.535,-0.547 c 0.153,-5.281 -0.607,-15.319 2.513,-19.549 0.872,-10.391 0.358,-21.09 0.341,-31.525 l -0.029,-51.998 c -0.008,-8.36 -0.348,-16.721 -0.069,-25.078 0.853,-1.384 2.118,-1.734 3.543,-2.477 q 48.005,-28.113 95.429,-57.193 l 0.157,-0.287 c -0.528,-3.281 -0.68,-6.702 -0.987,-10.016 -1.017,-1.076 -2.067,-1.948 -3.245,-2.843 -6.331,-4.069 -12.917,-7.79 -19.494,-11.444 -6.117,-4.306 -12.951,-8.008 -19.365,-11.891 -17.349,-10.504 -35.187,-20.613 -52.014,-31.921 q -2.097,1.291 -4.356,2.271 c -1.463,0.646 -2.619,1.086 -4.13,0.473 -1.538,-7.823 -0.678,-28.188 -0.681,-37.186 l 0.112,-80.446 c 7.898,-4.056 15.515,-9.077 23.069,-13.759 l 36.52,-22.779 c 11.436,-7.12 39.714,-22.753 47.465,-30.933 z"
         id="path182" />
      <path
         fill="#0b5c62"
         transform="matrix(0.999756,0,0,1,-102.375,0)"
         d="m 600.519,351.279 56.564,35.127 c 9.931,6.138 21.157,12.037 30.283,19.245 -3.353,1.98 -6.685,4.036 -10.147,5.821 -6.94,-5.029 -15.626,-9.032 -23.078,-13.369 q -30.075,-17.364 -60.397,-34.294 c -2.288,-1.278 -4.442,-2.635 -6.602,-4.114 q 6.639,-4.287 13.377,-8.416 z"
         id="path184" />
      <path
         fill="#5bb39c"
         transform="matrix(0.999756,0,0,1,-102.375,0)"
         d="m 587.142,359.695 c 2.16,1.479 4.314,2.836 6.602,4.114 q 30.322,16.93 60.397,34.294 c 7.452,4.337 16.138,8.34 23.078,13.369 l -14.388,8.519 c -7.723,-4.912 -15.975,-9.296 -23.851,-13.993 l -59.541,-35.544 -5.204,-3.358 c 4.22,-2.633 8.54,-5.026 12.907,-7.401 z"
         id="path186" />
      <path
         fill="#3f9b83"
         transform="matrix(0.999756,0,0,1,-102.375,0)"
         d="m 587.142,359.695 c 2.16,1.479 4.314,2.836 6.602,4.114 -4.319,3.231 -9.829,3.808 -14.305,6.645 l -5.204,-3.358 c 4.22,-2.633 8.54,-5.026 12.907,-7.401 z"
         id="path188" />
      <path
         fill="#0c2a3c"
         transform="matrix(0.999756,0,0,1,-102.375,0)"
         d="m 616.192,652.054 q -0.02,7.816 0.209,15.628 -30.202,17.535 -60.67,34.603 c -11.76,6.609 -24.047,12.874 -35.295,20.29 l 0.056,-17.178 c 6.501,-1.837 12.892,-6.694 18.808,-9.975 18.214,-10.106 36.036,-20.867 54.175,-31.097 7.315,-4.126 14.932,-9.237 22.717,-12.271 z"
         id="path190" />
      <path
         fill="#5bb39c"
         transform="matrix(0.999756,0,0,1,-102.375,0)"
         d="m 562.864,374.095 11.371,-6.999 5.204,3.358 59.541,35.544 c 7.876,4.697 16.128,9.081 23.851,13.993 -3.459,2.149 -6.889,4.385 -10.435,6.385 -4.37,2.567 -8.95,5.77 -13.515,7.902 -27.836,-15.287 -54.728,-32.47 -82.372,-48.153 q -3.651,-2.072 -7.256,-4.222 c 4.497,-2.664 9.076,-5.209 13.611,-7.808 z"
         id="path192" />
      <path
         fill="#3f9b83"
         transform="matrix(0.999756,0,0,1,-102.375,0)"
         d="m 562.864,374.095 q 4.295,2.204 8.525,4.53 c -4.508,1.905 -11.287,4.251 -14.88,7.5 q -3.651,-2.072 -7.256,-4.222 c 4.497,-2.664 9.076,-5.209 13.611,-7.808 z"
         id="path194" />
      <path
         fill="#0b5c62"
         transform="matrix(0.999756,0,0,1,-102.375,0)"
         d="m 562.864,374.095 11.371,-6.999 5.204,3.358 59.541,35.544 c 7.876,4.697 16.128,9.081 23.851,13.993 -3.459,2.149 -6.889,4.385 -10.435,6.385 -11,-7.503 -23.055,-13.947 -34.5,-20.768 -15.366,-9.157 -30.595,-18.806 -46.507,-26.983 q -4.23,-2.326 -8.525,-4.53 z"
         id="path196" />
      <path
         fill="#0c2a3c"
         transform="matrix(0.999756,0,0,1,-102.375,0)"
         d="m 699.976,413.502 -0.242,108.208 c -4.67,2.827 -9.343,5.597 -14.138,8.21 -3.772,2.274 -7.545,4.829 -11.482,6.79 -1.553,-8.847 -0.47,-19.96 -0.485,-29.075 -0.04,-25.793 0.75,-51.791 0.084,-77.554 l 11.774,-7.318 q 7.22,-4.669 14.489,-9.261 z"
         id="path198" />
      <path
         fill="#226c61"
         transform="matrix(0.999756,0,0,1,-102.375,0)"
         d="m 673.713,430.081 11.774,-7.318 c 0,35.681 -0.666,71.492 0.109,107.157 -3.772,2.274 -7.545,4.829 -11.482,6.79 -1.553,-8.847 -0.47,-19.96 -0.485,-29.075 -0.04,-25.793 0.75,-51.791 0.084,-77.554 z"
         id="path200" />
      <path
         fill="#0c2a3c"
         transform="matrix(0.999756,0,0,1,-102.375,0)"
         d="m 616.401,608.22 q -0.11,6.964 -0.139,13.928 l -0.04,15.437 -0.03,14.469 c -7.785,3.034 -15.402,8.145 -22.717,12.271 -18.139,10.23 -35.961,20.991 -54.175,31.097 -5.916,3.281 -12.307,8.138 -18.808,9.975 l -0.008,-12.833 0.063,-15.112 -0.006,-14.697 c 9.574,-3.74 19.018,-10.065 27.905,-15.212 l 50.286,-28.874 c 5.921,-3.372 11.601,-7.377 17.669,-10.449 z"
         id="path202" />
      <path
         fill="#226c61"
         transform="matrix(0.999756,0,0,1,-102.375,0)"
         d="m 616.401,608.22 q -0.11,6.964 -0.139,13.928 -32.461,18.173 -64.638,36.843 c -10.295,5.983 -21.278,11.738 -31.077,18.461 l -0.006,-14.697 c 9.574,-3.74 19.018,-10.065 27.905,-15.212 l 50.286,-28.874 c 5.921,-3.372 11.601,-7.377 17.669,-10.449 z"
         id="path204" />
      <path
         fill="#226c61"
         transform="matrix(0.999756,0,0,1,-102.375,0)"
         d="m 616.222,637.585 -0.03,14.469 c -7.785,3.034 -15.402,8.145 -22.717,12.271 -18.139,10.23 -35.961,20.991 -54.175,31.097 -5.916,3.281 -12.307,8.138 -18.808,9.975 l -0.008,-12.833 c 31.613,-18.868 63.847,-36.599 95.738,-54.979 z"
         id="path206" />
      <path
         fill="#fefefe"
         transform="matrix(0.999756,0,0,1,-102.375,0)"
         d="m 549.253,381.903 q 3.605,2.15 7.256,4.222 c 27.644,15.683 54.536,32.866 82.372,48.153 4.565,-2.132 9.145,-5.335 13.515,-7.902 3.546,-2 6.976,-4.236 10.435,-6.385 l 14.388,-8.519 c 3.462,-1.785 6.794,-3.841 10.147,-5.821 3.989,2.996 8.229,5.476 12.61,7.851 q -7.269,4.592 -14.489,9.261 l -11.774,7.318 -11.677,6.864 q -5.844,3.216 -11.478,6.788 c -3.523,2.209 -7.259,4.299 -10.636,6.714 q -4.507,2.749 -8.985,5.546 c -4.91,2.56 -9.626,5.653 -14.58,8.081 -0.528,-3.281 -0.68,-6.702 -0.987,-10.016 -1.017,-1.076 -2.067,-1.948 -3.245,-2.843 -6.331,-4.069 -12.917,-7.79 -19.494,-11.444 -6.117,-4.306 -12.951,-8.008 -19.365,-11.891 -17.349,-10.504 -35.187,-20.613 -52.014,-31.921 3.984,-2.406 8.293,-4.395 12.031,-7.18 l 1.154,0.498 c 1.227,-0.591 2.517,-1.013 3.797,-1.474 z"
         id="path208" />
      <path
         fill="#3f9b83"
         transform="matrix(0.999756,0,0,1,-102.375,0)"
         d="m 538.234,387.803 c 7.972,5.314 17.095,9.518 25.485,14.184 q 21.091,11.889 41.949,24.183 c 6.82,3.982 17.292,8.845 22.347,14.65 -1.438,0.904 -3.075,1.55 -4.622,2.252 Q 592.575,424.817 562.054,406.07 c -9.152,-5.589 -18.811,-10.69 -27.617,-16.793 1.227,-0.591 2.517,-1.013 3.797,-1.474 z"
         id="path210" />
      <path
         fill="url(#gradient_3)"
         transform="matrix(0.999756,0,0,1,-102.375,0)"
         d="m 549.253,381.903 q 3.605,2.15 7.256,4.222 c 27.644,15.683 54.536,32.866 82.372,48.153 q -5.411,3.308 -10.866,6.542 c -5.055,-5.805 -15.527,-10.668 -22.347,-14.65 Q 584.81,413.876 563.719,401.987 c -8.39,-4.666 -17.513,-8.87 -25.485,-14.184 z"
         id="path219"
         style="fill:url(#gradient_3)" />
      <path
         fill="#226c61"
         transform="matrix(0.999756,0,0,1,-102.375,0)"
         d="m 633.432,603.177 c 6.54,2.944 13.509,8.343 19.785,12.107 14.211,8.524 28.679,16.613 42.846,25.212 l 0.037,68.417 c -20.288,-13.924 -42.226,-25.645 -63.118,-38.645 0.671,-22.318 0.391,-44.759 0.45,-67.091 z"
         id="path221" />
      <path
         fill="#5bb39c"
         transform="matrix(0.999756,0,0,1,-102.375,0)"
         d="m 638.173,612.674 c 7.829,4.054 15.405,9.227 22.987,13.794 10.096,6.083 20.482,11.864 30.287,18.405 q 0.089,27.003 -0.336,54.002 C 673.582,688.201 656.19,676.649 638.164,666.868 q 0.308,-27.097 0.009,-54.194 z"
         id="path223" />
      <path
         fill="#226c61"
         transform="matrix(0.999756,0,0,1,-102.375,0)"
         d="m 662.036,436.945 11.677,-6.864 c 0.666,25.763 -0.124,51.761 -0.084,77.554 0.015,9.115 -1.068,20.228 0.485,29.075 -3.748,2.591 -7.769,4.799 -11.708,7.087 l -12.162,7.278 q -5.315,3.315 -10.746,6.437 l -8.834,5.528 c -1.076,-11.523 -0.126,-24.494 -0.105,-36.228 q -0.104,-35.411 0.378,-70.819 4.478,-2.797 8.985,-5.546 c 3.377,-2.415 7.113,-4.505 10.636,-6.714 q 5.634,-3.572 11.478,-6.788 z"
         id="path225" />
      <path
         fill="#0c2a3c"
         transform="matrix(0.999756,0,0,1,-102.375,0)"
         d="m 662.036,436.945 11.677,-6.864 c 0.666,25.763 -0.124,51.761 -0.084,77.554 0.015,9.115 -1.068,20.228 0.485,29.075 -3.748,2.591 -7.769,4.799 -11.708,7.087 -0.268,-14.303 0.037,-28.67 0.023,-42.98 z"
         id="path227" />
      <path
         fill="#0c2a3c"
         transform="matrix(0.999756,0,0,1,-102.375,0)"
         d="m 639.922,450.447 c 3.377,-2.415 7.113,-4.505 10.636,-6.714 l -0.314,107.342 q -5.315,3.315 -10.746,6.437 l -8.834,5.528 c -1.076,-11.523 -0.126,-24.494 -0.105,-36.228 q -0.104,-35.411 0.378,-70.819 4.478,-2.797 8.985,-5.546 z"
         id="path229" />
      <path
         fill="#226c61"
         transform="matrix(0.999756,0,0,1,-102.375,0)"
         d="m 630.937,455.993 q 4.478,-2.797 8.985,-5.546 -0.484,53.534 -0.424,107.065 l -8.834,5.528 c -1.076,-11.523 -0.126,-24.494 -0.105,-36.228 q -0.104,-35.411 0.378,-70.819 z"
         id="path231" />
      <path
         fill="#fcc65c"
         transform="matrix(0.999756,0,0,1,-102.375,0)"
         d="m 738.785,508.499 c 1.239,0.649 2.434,1.421 3.635,2.14 q 25.623,15.063 50.977,30.573 c 10.838,6.543 22.16,12.765 32.632,19.86 -23.84,14.959 -48.313,29.061 -72.546,43.375 -11.918,7.039 -23.877,15.324 -36.338,21.323 -4.814,-4.107 -22.022,-12.926 -28.373,-16.597 Q 663.269,594.212 637.95,578.941 c 6.031,-3.543 12.254,-7.556 18.692,-10.297 21.242,-12.194 41.975,-25.407 63.357,-37.328 0.377,-5.797 0.009,-11.846 -0.013,-17.669 6.244,-1.801 12.472,-3.658 18.799,-5.148 z"
         id="path233" />
      <path
         fill="#226c61"
         transform="matrix(0.999756,0,0,1,-102.375,0)"
         d="m 769.407,568.324 c 1.604,1.304 2.083,2.125 2.523,4.185 -18.505,10.574 -36.714,21.682 -55.194,32.314 -7.292,-4.74 -15.03,-8.928 -22.529,-13.34 q -15.898,-9.429 -31.636,-19.124 c 1.95,-1.271 3.929,-2.416 5.965,-3.54 7.443,3.827 14.461,8.955 21.62,13.33 9.032,5.52 18.337,10.583 27.328,16.171 7.255,-4.739 14.878,-8.915 22.367,-13.269 9.787,-5.69 19.526,-11.473 29.556,-16.727 z"
         id="path235" />
      <path
         fill="#0c2a3c"
         transform="matrix(0.999756,0,0,1,-102.375,0)"
         d="m 719.999,531.316 c 13.412,8.816 27.613,16.696 41.398,24.929 6.137,3.666 12.792,7.187 18.485,11.515 l -7.952,4.749 c -0.44,-2.06 -0.919,-2.881 -2.523,-4.185 -4.798,-2.47 -9.466,-5.457 -14.144,-8.165 q -17.777,-10.847 -35.688,-21.469 -24.011,13.668 -47.623,28.016 c -1.136,0.697 -2.313,1.367 -3.416,2.113 -2.036,1.124 -4.015,2.269 -5.965,3.54 l -5.929,-3.715 c 21.242,-12.194 41.975,-25.407 63.357,-37.328 z"
         id="path237" />
      <path
         fill="#3f9b83"
         transform="matrix(0.999756,0,0,1,-102.375,0)"
         d="m 755.263,560.159 c 4.678,2.708 9.346,5.695 14.144,8.165 -10.03,5.254 -19.769,11.037 -29.556,16.727 -7.489,4.354 -15.112,8.53 -22.367,13.269 -8.991,-5.588 -18.296,-10.651 -27.328,-16.171 -7.159,-4.375 -14.177,-9.503 -21.62,-13.33 1.103,-0.746 2.28,-1.416 3.416,-2.113 8.562,5.509 18.799,10.341 28.906,12.011 19.706,3.257 38.874,-7.378 54.405,-18.558 z"
         id="path239" />
      <path
         fill="#5bb39c"
         transform="matrix(0.999756,0,0,1,-102.375,0)"
         d="m 719.575,538.69 q 17.911,10.623 35.688,21.469 c -15.531,11.18 -34.699,21.815 -54.405,18.558 -10.107,-1.67 -20.344,-6.502 -28.906,-12.011 q 23.612,-14.348 47.623,-28.016 z"
         id="path241" />
      <path
         fill="#ce512d"
         transform="matrix(0.999756,0,0,1,-102.375,0)"
         d="m 619.251,213.6 c -0.568,6.781 -0.366,13.711 -0.415,20.517 l -0.213,34.062 -0.135,38.25 c -0.013,7.155 -0.288,14.434 0.156,21.574 -3.12,2.142 -6.459,3.973 -9.735,5.863 -3.521,1.981 -9.108,6.423 -13.156,6.144 -1.302,-0.719 -1.277,-1.005 -1.897,-2.387 q -29.339,16.714 -58.186,34.264 l 1.012,0.35 c 6.254,-3.573 55.115,-33.612 57.324,-32.739 0.231,0.092 0.99,0.751 1.201,0.927 1.213,0.019 2.408,0 3.619,-0.05 1.137,1.346 0.763,7.986 0.838,10.081 -9.134,6.126 -18.713,11.398 -28.107,17.099 -11.764,7.138 -24.315,15.833 -37.31,20.546 -0.683,0.247 -0.429,0.113 -0.964,0.678 -3.738,2.785 -8.047,4.774 -12.031,7.18 q -2.097,1.291 -4.356,2.271 c -1.463,0.646 -2.619,1.086 -4.13,0.473 -1.538,-7.823 -0.678,-28.188 -0.681,-37.186 l 0.112,-80.446 c 7.898,-4.056 15.515,-9.077 23.069,-13.759 l 36.52,-22.779 c 11.436,-7.12 39.714,-22.753 47.465,-30.933 z"
         id="path243" />
      <path
         fill="#0b5c62"
         transform="matrix(0.999756,0,0,1,-102.375,0)"
         d="m 531.973,293.079 c 10.04,-5.366 19.622,-11.951 29.348,-17.875 10.872,-6.623 22.172,-12.812 32.679,-19.982 0.289,17.523 0.029,35.086 0.06,52.613 0.017,9.711 0.943,20.217 -0.204,29.788 q -29.339,16.714 -58.186,34.264 l -3.853,1.843 c -0.709,-9.516 -0.155,-19.367 -0.101,-28.93 z"
         id="path245" />
      <path
         fill="#226c61"
         transform="matrix(0.999756,0,0,1,-102.375,0)"
         d="m 589.379,263.981 c 1.566,2.599 0.129,62.948 0.093,70.326 -17.874,10.213 -35.804,20.771 -53.205,31.77 -1.233,-6.827 -0.413,-14.902 -0.448,-21.906 q -0.303,-23.903 0.122,-47.804 c 18.091,-10.289 35.575,-21.699 53.438,-32.386 z"
         id="path247" />
      <path
         fill="#b73c34"
         transform="matrix(0.999756,0,0,1,-102.375,0)"
         d="m 616.357,464.074 c 4.954,-2.428 9.67,-5.521 14.58,-8.081 q -0.482,35.408 -0.378,70.819 c -0.021,11.734 -0.971,24.705 0.105,36.228 -4.048,2.828 -8.336,5.126 -12.248,8.168 l -1.77,1.349 -0.179,1.105 c 0.154,6.159 0.808,13.254 -0.021,19.31 0.002,5.067 0.164,10.187 -0.045,15.248 -6.068,3.072 -11.748,7.077 -17.669,10.449 l -50.286,28.874 c -8.887,5.147 -18.331,11.472 -27.905,15.212 l 0.081,-14.57 c -2.042,1.342 -4.07,2.714 -6.15,3.996 0.153,-5.281 -0.607,-15.319 2.513,-19.549 0.872,-10.391 0.358,-21.09 0.341,-31.525 l -0.029,-51.998 c -0.008,-8.36 -0.348,-16.721 -0.069,-25.078 0.853,-1.384 2.118,-1.734 3.543,-2.477 q 48.005,-28.113 95.429,-57.193 z"
         id="path249" />
      <path
         fill="#c3bba5"
         transform="matrix(0.999756,0,0,1,-102.375,0)"
         d="m 616.357,464.074 c 4.954,-2.428 9.67,-5.521 14.58,-8.081 q -0.482,35.408 -0.378,70.819 c -0.021,11.734 -0.971,24.705 0.105,36.228 -4.048,2.828 -8.336,5.126 -12.248,8.168 l -1.77,1.349 -0.088,-69.737 c 0.011,-5.937 0.983,-34.631 -0.358,-38.459 z"
         id="path251" />
      <path
         fill="#e17346"
         transform="matrix(0.999756,0,0,1,-102.375,0)"
         d="m 589.332,512.478 c 1.116,1.144 0.657,41.567 0.655,46.773 -14.891,7.65 -28.926,17.032 -43.607,25.092 l -0.236,-0.19 c -0.921,-4.253 -0.243,-9.996 -0.237,-14.402 l 0.064,-31.852 c 13.727,-9.281 28.992,-17.144 43.361,-25.421 z"
         id="path253" />
      <path
         fill="#c3bba5"
         transform="matrix(0.999756,0,0,1,-102.375,0)"
         d="m 520.755,630.377 c 20.906,-11.897 41.582,-24.404 62.269,-36.682 11.07,-6.569 23.022,-12.492 33.443,-20.033 0.154,6.159 0.808,13.254 -0.021,19.31 0.002,5.067 0.164,10.187 -0.045,15.248 -6.068,3.072 -11.748,7.077 -17.669,10.449 l -50.286,28.874 c -8.887,5.147 -18.331,11.472 -27.905,15.212 l 0.081,-14.57 c -2.042,1.342 -4.07,2.714 -6.15,3.996 0.153,-5.281 -0.607,-15.319 2.513,-19.549 z"
         id="path255" />
      <path
         fill="#0c2a3c"
         transform="matrix(0.999756,0,0,1,-102.375,0)"
         d="m 616.446,592.972 c 0.002,5.067 0.164,10.187 -0.045,15.248 -6.068,3.072 -11.748,7.077 -17.669,10.449 l -50.286,28.874 c -8.887,5.147 -18.331,11.472 -27.905,15.212 l 0.081,-14.57 c 5.271,-4.444 22.421,-13.242 29.286,-17.181 q 33.166,-19.198 66.538,-38.032 z"
         id="path257" />
    </g>
    <defs
       id="defs24">
      <linearGradient
         id="gradient_0"
         gradientUnits="userSpaceOnUse"
         x1="558.44318"
         y1="968.00006"
         x2="975.05615"
         y2="369.85968">
        <stop
           offset="0"
           stop-color="#248A6F"
           id="stop19" />
        <stop
           offset="1"
           stop-color="#51B096"
           id="stop21" />
      </linearGradient>
    </defs>
    <defs
       id="defs113">
      <linearGradient
         id="gradient_1"
         gradientUnits="userSpaceOnUse"
         x1="375.35632"
         y1="523.37543"
         x2="219.64851"
         y2="605.13379">
        <stop
           offset="0"
           stop-color="#FEAB36"
           id="stop108" />
        <stop
           offset="1"
           stop-color="#FFD56B"
           id="stop110" />
      </linearGradient>
    </defs>
    <defs
       id="defs136">
      <linearGradient
         id="gradient_2"
         gradientUnits="userSpaceOnUse"
         x1="610.08264"
         y1="528.97943"
         x2="318.96951"
         y2="507.11743">
        <stop
           offset="0"
           stop-color="#E2E5DA"
           id="stop131" />
        <stop
           offset="1"
           stop-color="white"
           id="stop133" />
      </linearGradient>
    </defs>
    <defs
       id="defs217">
      <linearGradient
         id="gradient_3"
         gradientUnits="userSpaceOnUse"
         x1="550.7486"
         y1="376.33295"
         x2="626.02283"
         y2="445.41614">
        <stop
           offset="0"
           stop-color="#065366"
           id="stop212" />
        <stop
           offset="1"
           stop-color="#0D7274"
           id="stop214" />
      </linearGradient>
    </defs>
  </g>
</svg>
